<svg xmlns="http://www.w3.org/2000/svg" viewBox="0 0 22.75 28"><defs><style>.cls-1{fill:#976d3f;}</style></defs><title>2자산 43</title><g id="레이어_2" data-name="레이어 2"><g id="레이어_1-2" data-name="레이어 1"><polygon class="cls-1" points="13.19 5.58 16.13 3.45 12.5 3.45 12.5 3.45 11.38 0 10.26 3.45 10.26 3.45 6.63 3.45 9.56 5.58 8.44 9.04 11.38 6.9 14.31 9.04 13.19 5.58"/><path class="cls-1" d="M13.35,24.25a2.55,2.55,0,0,0,2.47-2.47c0-2.79-2.94-2.94-2.94-2.94H8.42V28h1.2V24.48h2.49L14.78,28h1.4Zm-3.77-.71V19.88h3.15s2,.1,2,1.83-2,1.83-2,1.83Z"/><path class="cls-1" d="M16.49,27.56h-.17v-.14h.5v.14h-.17V28h-.16Zm.41-.14h.19l.08.19,0,.13h0l0-.13.08-.19h.18V28h-.15v-.2l0-.21h0l-.12.32h-.11L17,27.59h0l0,.21V28H16.9Z"/><rect class="cls-1" y="13.31" width="22.75" height="0.93"/></g></g></svg>