<svg xmlns="http://www.w3.org/2000/svg" viewBox="0 0 64 64"><defs><style>.cls-1{fill:#222;}.cls-2{fill:#976d3f;}</style></defs><title>2자산 42</title><g id="레이어_2" data-name="레이어 2"><g id="레이어_1-2" data-name="레이어 1"><rect class="cls-1" width="64" height="64"/><polygon class="cls-2" points="35.56 15.47 41.33 11.28 34.2 11.28 34.2 11.28 32 4.5 29.8 11.28 29.8 11.28 22.67 11.28 28.44 15.47 26.23 22.25 32 18.06 37.77 22.25 35.56 15.47"/><path class="cls-2" d="M35.87,52.14c5-.64,4.85-4.85,4.85-4.85,0-5.49-5.77-5.78-5.77-5.78H26.19v18h2.37V52.59h4.87l5.26,6.91h2.74Zm-7.41-1.4V43.55h6.2s3.93.19,3.93,3.6-3.93,3.59-3.93,3.59Z"/><path class="cls-2" d="M42.05,58.64h-.33v-.29h1v.29h-.34v.86h-.31Zm.81-.29h.36l.15.38.09.26h0l.09-.26.15-.38h.36V59.5h-.29v-.39l0-.42h0l-.22.64h-.23l-.22-.64h0l0,.42v.39h-.29Z"/><rect class="cls-2" x="9.65" y="30.64" width="44.69" height="1.83"/></g></g></svg>