<svg xmlns="http://www.w3.org/2000/svg" viewBox="0 0 175.76 216.29"><defs><style>.cls-1{fill:#976d3f;}</style></defs><title>2자산 1</title><g id="레이어_2" data-name="레이어 2"><g id="레이어_1-2" data-name="레이어 1"><polygon class="cls-1" points="101.89 43.14 124.58 26.66 96.54 26.66 96.54 26.66 87.88 0 79.22 26.66 79.22 26.66 51.18 26.66 73.86 43.14 65.2 69.8 87.88 53.33 110.56 69.8 101.89 43.14"/><path class="cls-1" d="M103.1,187.34c19.45-2.51,19.08-19.08,19.08-19.08,0-21.59-22.71-22.71-22.71-22.71H65v70.74h9.31V189.11H93.51l20.66,27.18H125ZM74,181.85V153.56H98.35s15.45.74,15.45,14.14-15.45,14.15-15.45,14.15Z"/><path class="cls-1" d="M127.39,212.91h-1.3v-1.14H130v1.14h-1.31v3.38h-1.25Zm3.19-1.14H132l.6,1.49.35,1H133l.34-1,.58-1.49h1.43v4.52h-1.14v-1.54l.14-1.63h0l-.89,2.5h-.89l-.88-2.5h-.06l.15,1.63v1.54h-1.15Z"/><rect class="cls-1" y="102.81" width="175.76" height="7.19"/></g></g></svg>